<svg width="19" height="19" viewBox="0 0 19 19" fill="none" xmlns="http://www.w3.org/2000/svg">
<g id="log-out">
<path id="&#240;&#159;&#142;&#168; Icon &#208;&#161;olor" fill-rule="evenodd" clip-rule="evenodd" d="M6.33332 3.95841C6.33332 4.39383 5.97707 4.75008 5.54166 4.75008H4.74999V14.2501H5.54166C5.97707 14.2501 6.33332 14.6063 6.33332 15.0417C6.33332 15.4772 5.97707 15.8334 5.54166 15.8334H3.95832C3.52291 15.8334 3.16666 15.4772 3.16666 15.0417V3.95841C3.16666 3.523 3.52291 3.16675 3.95832 3.16675H5.54166C5.97707 3.16675 6.33332 3.523 6.33332 3.95841ZM14.2531 5.87805L16.4808 9.04472C16.6787 9.32497 16.6724 9.70101 16.4666 9.97492L14.0916 13.1416C13.9364 13.349 13.6981 13.4583 13.4575 13.4583C13.2928 13.4583 13.1257 13.4068 12.9832 13.2999C12.6333 13.0379 12.5629 12.5415 12.8249 12.1924L14.2507 10.2916H14.2499H7.91658C7.47958 10.2916 7.12491 9.93772 7.12491 9.49992C7.12491 9.06213 7.47958 8.70826 7.91658 8.70826H14.2499C14.263 8.70826 14.2751 8.71186 14.2873 8.7155C14.2973 8.71846 14.3073 8.72144 14.318 8.72251L12.9579 6.78847C12.7062 6.43142 12.7925 5.93742 13.1503 5.68567C13.5073 5.43313 14.0013 5.52022 14.2531 5.87805Z" fill="white"/>
<mask id="mask0_1_797" style="mask-type:alpha" maskUnits="userSpaceOnUse" x="3" y="3" width="14" height="13">
<path id="&#240;&#159;&#142;&#168; Icon &#208;&#161;olor_2" fill-rule="evenodd" clip-rule="evenodd" d="M6.33332 3.95841C6.33332 4.39383 5.97707 4.75008 5.54166 4.75008H4.74999V14.2501H5.54166C5.97707 14.2501 6.33332 14.6063 6.33332 15.0417C6.33332 15.4772 5.97707 15.8334 5.54166 15.8334H3.95832C3.52291 15.8334 3.16666 15.4772 3.16666 15.0417V3.95841C3.16666 3.523 3.52291 3.16675 3.95832 3.16675H5.54166C5.97707 3.16675 6.33332 3.523 6.33332 3.95841ZM14.2531 5.87805L16.4808 9.04472C16.6787 9.32497 16.6724 9.70101 16.4666 9.97492L14.0916 13.1416C13.9364 13.349 13.6981 13.4583 13.4575 13.4583C13.2928 13.4583 13.1257 13.4068 12.9832 13.2999C12.6333 13.0379 12.5629 12.5415 12.8249 12.1924L14.2507 10.2916H14.2499H7.91658C7.47958 10.2916 7.12491 9.93772 7.12491 9.49992C7.12491 9.06213 7.47958 8.70826 7.91658 8.70826H14.2499C14.263 8.70826 14.2751 8.71186 14.2873 8.7155C14.2973 8.71846 14.3073 8.72144 14.318 8.72251L12.9579 6.78847C12.7062 6.43142 12.7925 5.93742 13.1503 5.68567C13.5073 5.43313 14.0013 5.52022 14.2531 5.87805Z" fill="white"/>
</mask>
<g mask="url(#mask0_1_797)">
</g>
</g>
</svg>
