<svg width="19" height="19" viewBox="0 0 19 19" fill="none" xmlns="http://www.w3.org/2000/svg">
<g id="flash-fill">
<path id="&#240;&#159;&#142;&#168; Icon &#208;&#161;olor" d="M8.79643 18.2083C8.70618 18.2083 8.61514 18.1925 8.52568 18.16C8.18368 18.0357 7.96993 17.6937 8.00951 17.3319L8.61751 11.7166H3.95856C3.66643 11.7166 3.39806 11.5559 3.26031 11.2979C3.12256 11.0398 3.13839 10.7279 3.30068 10.4848L9.54535 1.14315C9.74801 0.839939 10.1312 0.714064 10.474 0.839939C10.8168 0.964231 11.0297 1.30623 10.9901 1.66802L10.3821 7.28332H15.0419C15.334 7.28332 15.6024 7.44402 15.7401 7.70211C15.8771 7.96019 15.8621 8.27211 15.6998 8.51515L9.45431 17.8568C9.30468 18.0816 9.05451 18.2083 8.79643 18.2083Z" fill="white"/>
<mask id="mask0_1_794" style="mask-type:alpha" maskUnits="userSpaceOnUse" x="3" y="0" width="13" height="19">
<path id="&#240;&#159;&#142;&#168; Icon &#208;&#161;olor_2" d="M8.79643 18.2083C8.70618 18.2083 8.61514 18.1925 8.52568 18.16C8.18368 18.0357 7.96993 17.6937 8.00951 17.3319L8.61751 11.7166H3.95856C3.66643 11.7166 3.39806 11.5559 3.26031 11.2979C3.12256 11.0398 3.13839 10.7279 3.30068 10.4848L9.54535 1.14315C9.74801 0.839939 10.1312 0.714064 10.474 0.839939C10.8168 0.964231 11.0297 1.30623 10.9901 1.66802L10.3821 7.28332H15.0419C15.334 7.28332 15.6024 7.44402 15.7401 7.70211C15.8771 7.96019 15.8621 8.27211 15.6998 8.51515L9.45431 17.8568C9.30468 18.0817 9.05451 18.2083 8.79643 18.2083Z" fill="white"/>
</mask>
<g mask="url(#mask0_1_794)">
</g>
</g>
</svg>
